<svg width="40" height="41" viewBox="0 0 40 41" fill="none" xmlns="http://www.w3.org/2000/svg">
<rect y="0.494141" width="40" height="40" rx="8" fill="#E9FFF4"/>
<path d="M27.6997 15.2582L22.656 10.2145C22.5154 10.0738 22.3255 9.99414 22.1263 9.99414H12.17C11.7552 9.99414 11.42 10.3293 11.42 10.7441V30.2441C11.42 30.659 11.7552 30.9941 12.17 30.9941H27.17C27.5849 30.9941 27.92 30.659 27.92 30.2441V15.7902C27.92 15.591 27.8404 15.3988 27.6997 15.2582ZM26.1904 16.1348H21.7794V11.7238L26.1904 16.1348ZM26.2325 29.3066H13.1075V11.6816H20.1857V16.7441C20.1857 17.0052 20.2894 17.2556 20.474 17.4402C20.6586 17.6248 20.909 17.7285 21.17 17.7285H26.2325V29.3066ZM19.4825 22.9785H15.17C15.0669 22.9785 14.9825 23.0629 14.9825 23.166V24.291C14.9825 24.3941 15.0669 24.4785 15.17 24.4785H19.4825C19.5857 24.4785 19.67 24.3941 19.67 24.291V23.166C19.67 23.0629 19.5857 22.9785 19.4825 22.9785ZM14.9825 19.9785V21.1035C14.9825 21.2066 15.0669 21.291 15.17 21.291H24.17C24.2732 21.291 24.3575 21.2066 24.3575 21.1035V19.9785C24.3575 19.8754 24.2732 19.791 24.17 19.791H15.17C15.0669 19.791 14.9825 19.8754 14.9825 19.9785Z" fill="#45DB91"/>
</svg>
