<svg width="24" height="24" viewBox="0 0 24 24" fill="none" xmlns="http://www.w3.org/2000/svg">
<path d="M21.8323 5.35403C21.8323 4.72971 21.5843 4.13095 21.1428 3.68948C20.7013 3.24801 20.1026 3 19.4782 3H5.35403C4.72971 3 4.13095 3.24801 3.68948 3.68948C3.24801 4.13095 3 4.72971 3 5.35403L3 14.7702C3 15.3945 3.24801 15.9933 3.68948 16.4347C4.13095 16.8762 4.72971 17.1242 5.35403 17.1242H16.6369C16.9491 17.1243 17.2484 17.2483 17.4691 17.4691L20.8271 20.8271C20.9093 20.9095 21.0142 20.9657 21.1284 20.9886C21.2426 21.0114 21.361 20.9999 21.4686 20.9554C21.5762 20.9109 21.6682 20.8355 21.7329 20.7387C21.7977 20.6419 21.8323 20.5281 21.8323 20.4116V5.35403ZM7.11956 6.53105H17.7127C17.8688 6.53105 18.0185 6.59306 18.1289 6.70342C18.2392 6.81379 18.3012 6.96348 18.3012 7.11956C18.3012 7.27564 18.2392 7.42533 18.1289 7.5357C18.0185 7.64607 17.8688 7.70807 17.7127 7.70807H7.11956C6.96348 7.70807 6.81379 7.64607 6.70342 7.5357C6.59306 7.42533 6.53105 7.27564 6.53105 7.11956C6.53105 6.96348 6.59306 6.81379 6.70342 6.70342C6.81379 6.59306 6.96348 6.53105 7.11956 6.53105ZM7.11956 9.47359H17.7127C17.8688 9.47359 18.0185 9.5356 18.1289 9.64597C18.2392 9.75633 18.3012 9.90602 18.3012 10.0621C18.3012 10.2182 18.2392 10.3679 18.1289 10.4782C18.0185 10.5886 17.8688 10.6506 17.7127 10.6506H7.11956C6.96348 10.6506 6.81379 10.5886 6.70342 10.4782C6.59306 10.3679 6.53105 10.2182 6.53105 10.0621C6.53105 9.90602 6.59306 9.75633 6.70342 9.64597C6.81379 9.5356 6.96348 9.47359 7.11956 9.47359ZM7.11956 12.4161H13.0046C13.1607 12.4161 13.3104 12.4781 13.4208 12.5885C13.5312 12.6989 13.5932 12.8486 13.5932 13.0046C13.5932 13.1607 13.5312 13.3104 13.4208 13.4208C13.3104 13.5312 13.1607 13.5932 13.0046 13.5932H7.11956C6.96348 13.5932 6.81379 13.5312 6.70342 13.4208C6.59306 13.3104 6.53105 13.1607 6.53105 13.0046C6.53105 12.8486 6.59306 12.6989 6.70342 12.5885C6.81379 12.4781 6.96348 12.4161 7.11956 12.4161Z" fill="white"/>
</svg>
